<svg width="195" height="95" viewBox="0 0 195 95" fill="none" xmlns="http://www.w3.org/2000/svg">
<g id="Vector">
<path d="M0 0H18.417L36.7459 28.7263V0H56.7491V61.7835H38.3321L20.0032 32.9689V61.7835H0V0Z" fill="white"/>
<path d="M62.9057 0H81.3227L96.9199 32.7037L112.517 0H130.934V61.7835H111.636V38.8909L100.268 61.7835H93.5714L82.2039 38.8909V61.7835H62.9057V0Z" fill="white"/>
<path d="M137.085 0H160.701C167.515 0 173.478 1.23744 178.589 3.71232C183.759 6.1872 187.753 9.72274 190.573 14.3189C193.393 18.9151 194.803 24.3363 194.803 30.5824C194.803 40.8355 191.748 48.6137 185.639 53.917C179.588 59.1614 171.275 61.7835 160.701 61.7835H137.085V0ZM162.111 42.3381C169.748 42.3381 173.566 38.4195 173.566 30.5824C173.566 26.988 172.567 24.2479 170.57 22.3623C168.573 20.4177 165.753 19.4455 162.111 19.4455H157.969V42.3381H162.111Z" fill="white"/>
<path d="M0.490773 86.0165H1.99602L6.09782 92.1439V86.0165H7.69087V94.8113H6.18562L2.08383 88.6713V94.8113H0.490773V86.0165Z" fill="white"/>
<path d="M41.5004 83.2862H43.1687L42.09 85.4754H40.6349L41.5004 83.2862ZM41.3875 95C40.5095 95 39.715 94.8113 39.0042 94.4338C38.3018 94.048 37.7457 93.5069 37.3359 92.8107C36.9345 92.1145 36.7338 91.3177 36.7338 90.4202C36.7338 89.5226 36.9345 88.7258 37.3359 88.0296C37.7457 87.3334 38.3018 86.7923 39.0042 86.4065C39.715 86.0206 40.5095 85.8277 41.3875 85.8277C42.2572 85.8277 43.0433 86.0206 43.7457 86.4065C44.4566 86.7923 45.0127 87.3334 45.4141 88.0296C45.8238 88.7258 46.0287 89.5226 46.0287 90.4202C46.0287 91.3177 45.8238 92.1145 45.4141 92.8107C45.0127 93.4985 44.4566 94.0354 43.7457 94.4212C43.0433 94.8071 42.2572 95 41.3875 95ZM41.3875 93.5531C41.9478 93.5531 42.4579 93.4273 42.9179 93.1756C43.3778 92.9156 43.7416 92.5507 44.0092 92.081C44.2851 91.6029 44.4231 91.0493 44.4231 90.4202C44.4231 89.7994 44.2893 89.2542 44.0217 88.7845C43.7541 88.3064 43.3903 87.9373 42.9304 87.6773C42.4705 87.4173 41.9562 87.2872 41.3875 87.2872C40.8189 87.2872 40.3004 87.4173 39.8321 87.6773C39.3722 87.9373 39.0084 88.3064 38.7408 88.7845C38.4732 89.2542 38.3394 89.7994 38.3394 90.4202C38.3394 91.0493 38.4732 91.6029 38.7408 92.081C39.0168 92.5507 39.3847 92.9156 39.8446 93.1756C40.3129 93.4273 40.8272 93.5531 41.3875 93.5531Z" fill="white"/>
<path d="M75.071 86.0165H76.6265L79.5617 92.4584L82.4969 86.0165H84.0523V94.8113H82.5471V89.099L79.938 94.8113H79.1854L76.5763 89.099V94.8113H75.071V86.0165Z" fill="white"/>
<path d="M116.284 86.0165H117.827L121.327 94.8113H119.708L118.906 92.7856H115.193L114.402 94.8113H112.772L116.284 86.0165ZM118.467 91.4645L117.049 87.7276L115.632 91.4645H118.467Z" fill="white"/>
<path d="M150.362 86.0165H153.297C154.25 86.0165 155.078 86.1926 155.781 86.5449C156.483 86.8972 157.023 87.4005 157.399 88.0547C157.775 88.709 157.963 89.4807 157.963 90.3698C157.963 91.8293 157.541 92.9366 156.696 93.6915C155.852 94.438 154.673 94.8113 153.159 94.8113H150.362V86.0165ZM153.184 93.4902C154.204 93.4902 154.986 93.2176 155.53 92.6723C156.082 92.1187 156.358 91.3512 156.358 90.3698C156.358 89.7743 156.236 89.25 155.994 88.7971C155.751 88.3357 155.404 87.9792 154.953 87.7276C154.501 87.4676 153.966 87.3376 153.347 87.3376H151.955V93.4902H153.184Z" fill="white"/>
<path d="M187.003 86.0165H192.936V87.3376H188.596V89.7533H191.819V91.0744H188.596V93.4902H192.936V94.8113H187.003V86.0165Z" fill="white"/>
<path d="M0.0517428 69.0182H65.1725V75.3092H0.0517428V69.0182Z" fill="#D63C3C"/>
<path d="M64.9655 69.0182H130.086V75.3092H64.9655V69.0182Z" fill="#3E4660"/>
<path d="M129.879 69.0182H195V75.3092H129.879V69.0182Z" fill="#3C7AD6"/>
</g>
</svg>
