<svg width="22" height="22" viewBox="0 0 22 22" fill="none" xmlns="http://www.w3.org/2000/svg">
<g id="Iconsax/Bold/truck">
<path id="Vector" d="M12.3774 3.35951V10.6733C12.3774 11.571 11.6476 12.3015 10.7508 12.3015H2.70566C2.22208 12.3015 1.82642 11.9054 1.82642 11.4214V5.79744C1.82642 4.002 3.27717 2.5498 5.07084 2.5498H11.5597C12.0169 2.5498 12.3774 2.91065 12.3774 3.35951Z" fill="#3E4660"/>
<path id="Vector_2" d="M18.9717 14.4312C19.2179 14.4312 19.4114 14.6248 19.4114 14.8712V15.7513C19.4114 17.2123 18.2332 18.3917 16.7736 18.3917C16.7736 16.9395 15.5866 15.7513 14.1359 15.7513C12.6851 15.7513 11.4981 16.9395 11.4981 18.3917H9.73964C9.73964 16.9395 8.55266 15.7513 7.1019 15.7513C5.65114 15.7513 4.46416 16.9395 4.46416 18.3917C3.00461 18.3917 1.82642 17.2123 1.82642 15.7513V13.9911C1.82642 13.507 2.22208 13.111 2.70566 13.111H11.0585C11.6415 13.111 12.2006 12.8792 12.6128 12.4665C13.025 12.0539 13.2566 11.4943 13.2566 10.9107V6.07006C13.2566 5.58599 13.6523 5.18994 14.1359 5.18994H14.8744C15.5075 5.18994 16.0878 5.53319 16.4043 6.07886L16.9671 7.06459C17.0462 7.20541 16.9407 7.39023 16.7736 7.39023C16.1906 7.39023 15.6315 7.62205 15.2193 8.03468C14.8071 8.44732 14.5755 9.00697 14.5755 9.59053V12.2309C14.5755 12.8144 14.8071 13.3741 15.2193 13.7867C15.6315 14.1994 16.1906 14.4312 16.7736 14.4312H18.9717Z" fill="#3E4660"/>
<path id="Vector_3" d="M7.10194 20.152C7.56832 20.152 8.0156 19.9665 8.34538 19.6364C8.67517 19.3063 8.86044 18.8586 8.86044 18.3917C8.86044 17.9249 8.67517 17.4772 8.34538 17.1471C8.0156 16.817 7.56832 16.6315 7.10194 16.6315C6.63556 16.6315 6.18828 16.817 5.8585 17.1471C5.52871 17.4772 5.34344 17.9249 5.34344 18.3917C5.34344 18.8586 5.52871 19.3063 5.8585 19.6364C6.18828 19.9665 6.63556 20.152 7.10194 20.152ZM14.1359 20.152C14.6023 20.152 15.0496 19.9665 15.3794 19.6364C15.7091 19.3063 15.8944 18.8586 15.8944 18.3917C15.8944 17.9249 15.7091 17.4772 15.3794 17.1471C15.0496 16.817 14.6023 16.6315 14.1359 16.6315C13.6695 16.6315 13.2223 16.817 12.8925 17.1471C12.5627 17.4772 12.3774 17.9249 12.3774 18.3917C12.3774 18.8586 12.5627 19.3063 12.8925 19.6364C13.2223 19.9665 13.6695 20.152 14.1359 20.152ZM19.4114 11.8173V13.111H16.7737C16.2901 13.111 15.8944 12.715 15.8944 12.2309V9.59057C15.8944 9.1065 16.2901 8.71045 16.7737 8.71045H17.9079L19.1828 10.9459C19.3323 11.21 19.4114 11.5092 19.4114 11.8173Z" fill="#3E4660"/>
</g>
</svg>
