<svg width="19" height="18" viewBox="0 0 19 18" fill="none" xmlns="http://www.w3.org/2000/svg">
<path id="Vector" d="M13.8989 0.812988C12.262 0.812988 10.7969 1.65835 9.88353 2.95522C9.417 2.29124 8.81118 1.75191 8.11417 1.38005C7.41715 1.00819 6.64813 0.814031 5.86814 0.812988C3.09172 0.812988 0.839844 3.21459 0.839844 6.18297C0.839844 7.32614 1.01167 8.38284 1.31012 9.36269C2.73902 14.1659 7.1433 17.0382 9.32283 17.8259C9.63031 17.9412 10.1368 17.9412 10.4442 17.8259C12.6238 17.0382 17.028 14.1659 18.457 9.36269C18.7554 8.38284 18.9272 7.32614 18.9272 6.18297C18.9272 3.21459 16.6753 0.812988 13.8989 0.812988Z" fill="#D63C3C"/>
</svg>
